<svg version="1" xmlns="http://www.w3.org/2000/svg" width="666.667" height="666.667" viewBox="0 0 500.000000 500.000000"><path d="M230.9.4c-.2.2-3.5.7-7.4 1-21.5 1.9-47.3 8.4-69 17.3C92 44.2 41.5 95.5 16.7 158.6c-3.3 8.4-9.2 26.9-10.1 31.8-.2 1.2-.9 4.1-1.5 6.6-3.7 14.8-5 30.4-4.7 56.5.2 14.3.7 27.6 1 29.5.4 1.9 1.2 6.2 1.8 9.5.5 3.3 1.2 7.1 1.5 8.5 1 5.7 4.5 18.6 7.8 28.4C33.1 391.7 79 444.2 139 474.1c26 12.9 56.7 21.7 85.5 24.5 14.1 1.4 55.5.7 58.4-1 .3-.2 3-.7 5.9-1 3-.3 7.5-1.1 10-1.7 2.6-.6 6.1-1.3 7.7-1.6 5.2-.9 25.6-7.3 35-11C406 456.8 460.1 401.9 483 338.5c1.8-5 3.6-9.9 4.1-11 3.2-7.9 8.9-34.2 10.4-48 .4-3.3.9-7.1 1.1-8.5.5-3.7.5-35.9 0-40.5-.3-2.2-.8-6.5-1.1-9.5-5.4-51.8-29.5-103.9-66.1-142.2-12.5-13.1-19.7-19.4-39.9-34.6-9.3-7-35.3-21-47.5-25.7-1.9-.8-6-2.3-9-3.5-13.1-5-33.5-10.1-50.4-12.6-9-1.4-52.6-3-53.7-2z"/></svg>